<svg width="84" height="101" viewBox="0 0 84 101" fill="none" xmlns="http://www.w3.org/2000/svg">
<path d="M69.7 39.8333H64.9C70.791 39.8333 75.5667 44.609 75.5667 50.5C75.5667 56.391 70.791 61.1667 64.9 61.1667H32.9M69.7 39.8333C75.8856 39.8333 80.9 35.0577 80.9 29.1667C80.9 23.2756 75.8856 18.5 69.7 18.5H32.9M69.7 39.8333H16.9M13.1667 61.1667C10.2211 61.1667 7.83333 58.7789 7.83333 55.8333V45.1667C7.83333 42.2211 10.2211 39.8333 13.1667 39.8333H16.9M13.1667 61.1667H16.9M13.1667 61.1667C10.2211 61.1667 7.83333 63.5545 7.83333 66.5V77.1667C7.83333 80.1122 10.2211 82.5 13.1667 82.5H16.9M16.9 90.5C16.9 94.9183 20.4817 98.5 24.9 98.5C29.3183 98.5 32.9 94.9183 32.9 90.5V82.5M16.9 90.5V61.1667M16.9 90.5V82.5M16.9 39.8333H7.83333C4.88781 39.8333 2.5 37.4455 2.5 34.5V23.8333C2.5 20.8878 4.88782 18.5 7.83334 18.5H16.9M16.9 39.8333V61.1667M16.9 18.5V10.5C16.9 6.08172 20.4817 2.5 24.9 2.5C29.3183 2.5 32.9 6.08172 32.9 10.5V18.5M16.9 18.5H19.5667H30.2333H32.9M16.9 18.5H32.9M32.9 39.8333V61.1667M16.9 61.1667V82.5M32.9 82.5H43.5667C49.4577 82.5 54.2333 77.7244 54.2333 71.8333C54.2333 65.9423 49.4577 61.1667 43.5667 61.1667H32.9M32.9 82.5V61.1667" stroke="#737373" stroke-width="5"/>
</svg>
