<svg width="414" height="101" viewBox="0 0 414 101" fill="none" xmlns="http://www.w3.org/2000/svg">
<path d="M69.7 39.8333H64.9C70.791 39.8333 75.5667 44.609 75.5667 50.5C75.5667 56.391 70.791 61.1667 64.9 61.1667H32.9M69.7 39.8333C75.8856 39.8333 80.9 35.0577 80.9 29.1667C80.9 23.2756 75.8856 18.5 69.7 18.5H32.9M69.7 39.8333H16.9M13.1667 61.1667C10.2211 61.1667 7.83333 58.7789 7.83333 55.8333V45.1667C7.83333 42.2211 10.2211 39.8333 13.1667 39.8333H16.9M13.1667 61.1667H16.9M13.1667 61.1667C10.2211 61.1667 7.83333 63.5545 7.83333 66.5V77.1667C7.83333 80.1122 10.2211 82.5 13.1667 82.5H16.9M16.9 90.5C16.9 94.9183 20.4817 98.5 24.9 98.5C29.3183 98.5 32.9 94.9183 32.9 90.5V82.5M16.9 90.5V61.1667M16.9 90.5V82.5M16.9 39.8333H7.83333C4.88781 39.8333 2.5 37.4455 2.5 34.5V23.8333C2.5 20.8878 4.88782 18.5 7.83334 18.5H16.9M16.9 39.8333V61.1667M16.9 18.5V10.5C16.9 6.08172 20.4817 2.5 24.9 2.5C29.3183 2.5 32.9 6.08172 32.9 10.5V18.5M16.9 18.5H19.5667H30.2333H32.9M16.9 18.5H32.9M32.9 39.8333V61.1667M16.9 61.1667V82.5M32.9 82.5H43.5667C49.4577 82.5 54.2333 77.7244 54.2333 71.8333C54.2333 65.9423 49.4577 61.1667 43.5667 61.1667H32.9M32.9 82.5V61.1667" stroke="#737373" stroke-width="5"/>
<path d="M110.9 84.85V14.85H151.85V21.85H117.9V43.85H147.05V50.85H117.9V84.85H110.9Z" fill="#737373"/>
<path d="M157.017 34.85H164.017V84.85H157.017V34.85ZM160.567 26.1C159.434 26.1 158.467 25.7333 157.667 25C156.9 24.2333 156.517 23.2833 156.517 22.15C156.517 21.0166 156.9 20.0833 157.667 19.35C158.467 18.5833 159.434 18.2 160.567 18.2C161.667 18.2 162.6 18.5833 163.367 19.35C164.167 20.0833 164.567 21.0166 164.567 22.15C164.567 23.2833 164.184 24.2333 163.417 25C162.65 25.7333 161.7 26.1 160.567 26.1Z" fill="#737373"/>
<path d="M174.865 84.85V34.85H181.865V41.75C183.665 39.2166 185.965 37.2 188.765 35.7C191.565 34.2 194.631 33.45 197.965 33.45C201.731 33.45 205.181 34.3833 208.315 36.25C211.448 38.0833 213.898 40.5333 215.665 43.6C217.431 40.5333 219.865 38.0833 222.965 36.25C226.065 34.3833 229.498 33.45 233.265 33.45C237.031 33.45 240.465 34.3666 243.565 36.2C246.665 38.0333 249.131 40.5 250.965 43.6C252.798 46.7 253.715 50.1333 253.715 53.9V84.85H246.715V55.45C246.715 52.7833 246.065 50.3166 244.765 48.05C243.465 45.7833 241.715 43.9666 239.515 42.6C237.348 41.2 234.931 40.5 232.265 40.5C229.598 40.5 227.165 41.15 224.965 42.45C222.798 43.7166 221.065 45.4833 219.765 47.75C218.465 49.9833 217.815 52.55 217.815 55.45V84.85H210.815V55.45C210.815 52.55 210.165 49.9833 208.865 47.75C207.565 45.4833 205.815 43.7166 203.615 42.45C201.415 41.15 198.981 40.5 196.315 40.5C193.681 40.5 191.265 41.2 189.065 42.6C186.865 43.9666 185.115 45.7833 183.815 48.05C182.515 50.3166 181.865 52.7833 181.865 55.45V84.85H174.865Z" fill="#737373"/>
<path d="M302.855 34.85H309.855V84.85H302.855L302.605 75.55C300.972 78.7166 298.689 81.2833 295.755 83.25C292.822 85.1833 289.322 86.15 285.255 86.15C281.589 86.15 278.155 85.4666 274.955 84.1C271.755 82.7 268.939 80.7833 266.505 78.35C264.072 75.9166 262.172 73.1 260.805 69.9C259.439 66.7 258.755 63.2666 258.755 59.6C258.755 56 259.422 52.6166 260.755 49.45C262.122 46.2833 263.989 43.5 266.355 41.1C268.755 38.7 271.522 36.8333 274.655 35.5C277.822 34.1333 281.205 33.45 284.805 33.45C288.972 33.45 292.605 34.45 295.705 36.45C298.805 38.4166 301.272 41 303.105 44.2L302.855 34.85ZM285.105 79.35C288.672 79.35 291.739 78.4833 294.305 76.75C296.872 74.9833 298.839 72.6166 300.205 69.65C301.605 66.6833 302.305 63.4166 302.305 59.85C302.305 56.1833 301.605 52.8833 300.205 49.95C298.805 46.9833 296.822 44.6333 294.255 42.9C291.689 41.1666 288.639 40.3 285.105 40.3C281.572 40.3 278.339 41.1833 275.405 42.95C272.505 44.6833 270.189 47.0333 268.455 50C266.755 52.9666 265.905 56.25 265.905 59.85C265.905 63.4833 266.789 66.7833 268.555 69.75C270.322 72.6833 272.655 75.0166 275.555 76.75C278.489 78.4833 281.672 79.35 285.105 79.35Z" fill="#737373"/>
<path d="M362.461 53.9V84.85H355.461V55.3C355.461 52.5666 354.794 50.0833 353.461 47.85C352.128 45.6166 350.344 43.8333 348.111 42.5C345.878 41.1666 343.394 40.5 340.661 40.5C337.961 40.5 335.478 41.1666 333.211 42.5C330.978 43.8333 329.194 45.6166 327.861 47.85C326.528 50.0833 325.861 52.5666 325.861 55.3V84.85H318.861V34.85H325.861V41.75C327.628 39.2166 329.928 37.2 332.761 35.7C335.594 34.2 338.678 33.45 342.011 33.45C345.778 33.45 349.211 34.3666 352.311 36.2C355.411 38.0333 357.878 40.5 359.711 43.6C361.544 46.7 362.461 50.1333 362.461 53.9Z" fill="#737373"/>
<path d="M369.474 65.7V34.85H376.474V64.3C376.474 67.0333 377.141 69.5166 378.474 71.75C379.807 73.9833 381.591 75.7666 383.824 77.1C386.091 78.4333 388.574 79.1 391.274 79.1C394.007 79.1 396.474 78.4333 398.674 77.1C400.907 75.7666 402.691 73.9833 404.024 71.75C405.357 69.5166 406.024 67.0333 406.024 64.3V34.85H413.024L413.074 84.85H406.074L406.024 77.85C404.257 80.3833 401.957 82.4 399.124 83.9C396.324 85.4 393.257 86.15 389.924 86.15C386.157 86.15 382.724 85.2333 379.624 83.4C376.524 81.5666 374.057 79.1 372.224 76C370.391 72.9 369.474 69.4666 369.474 65.7Z" fill="#737373"/>
</svg>
