<svg width="303" height="72" viewBox="0 0 303 72" fill="none" xmlns="http://www.w3.org/2000/svg">
<path d="M0 70V0H40.95V7H7V29H36.15V36H7V70H0Z" fill="#737373"/>
<path d="M46.1172 20H53.1172V70H46.1172V20ZM49.6672 11.25C48.5339 11.25 47.5672 10.8833 46.7672 10.15C46.0005 9.38334 45.6172 8.43334 45.6172 7.3C45.6172 6.16667 46.0005 5.23333 46.7672 4.5C47.5672 3.73334 48.5339 3.35 49.6672 3.35C50.7672 3.35 51.7005 3.73334 52.4672 4.5C53.2672 5.23333 53.6672 6.16667 53.6672 7.3C53.6672 8.43334 53.2839 9.38334 52.5172 10.15C51.7505 10.8833 50.8005 11.25 49.6672 11.25Z" fill="#737373"/>
<path d="M63.9648 70V20H70.9648V26.9C72.7648 24.3667 75.0648 22.35 77.8648 20.85C80.6648 19.35 83.7315 18.6 87.0648 18.6C90.8315 18.6 94.2815 19.5333 97.4148 21.4C100.548 23.2333 102.998 25.6833 104.765 28.75C106.532 25.6833 108.965 23.2333 112.065 21.4C115.165 19.5333 118.598 18.6 122.365 18.6C126.132 18.6 129.565 19.5167 132.665 21.35C135.765 23.1833 138.232 25.65 140.065 28.75C141.898 31.85 142.815 35.2833 142.815 39.05V70H135.815V40.6C135.815 37.9333 135.165 35.4667 133.865 33.2C132.565 30.9333 130.815 29.1167 128.615 27.75C126.448 26.35 124.032 25.65 121.365 25.65C118.698 25.65 116.265 26.3 114.065 27.6C111.898 28.8667 110.165 30.6333 108.865 32.9C107.565 35.1333 106.915 37.7 106.915 40.6V70H99.9148V40.6C99.9148 37.7 99.2648 35.1333 97.9648 32.9C96.6648 30.6333 94.9148 28.8667 92.7148 27.6C90.5148 26.3 88.0815 25.65 85.4148 25.65C82.7815 25.65 80.3648 26.35 78.1648 27.75C75.9648 29.1167 74.2148 30.9333 72.9148 33.2C71.6148 35.4667 70.9648 37.9333 70.9648 40.6V70H63.9648Z" fill="#737373"/>
<path d="M191.955 20H198.955V70H191.955L191.705 60.7C190.072 63.8667 187.789 66.4333 184.855 68.4C181.922 70.3333 178.422 71.3 174.355 71.3C170.689 71.3 167.255 70.6167 164.055 69.25C160.855 67.85 158.039 65.9333 155.605 63.5C153.172 61.0667 151.272 58.25 149.905 55.05C148.539 51.85 147.855 48.4167 147.855 44.75C147.855 41.15 148.522 37.7667 149.855 34.6C151.222 31.4333 153.089 28.65 155.455 26.25C157.855 23.85 160.622 21.9833 163.755 20.65C166.922 19.2833 170.305 18.6 173.905 18.6C178.072 18.6 181.705 19.6 184.805 21.6C187.905 23.5667 190.372 26.15 192.205 29.35L191.955 20ZM174.205 64.5C177.772 64.5 180.839 63.6333 183.405 61.9C185.972 60.1333 187.939 57.7667 189.305 54.8C190.705 51.8333 191.405 48.5667 191.405 45C191.405 41.3333 190.705 38.0333 189.305 35.1C187.905 32.1333 185.922 29.7833 183.355 28.05C180.789 26.3167 177.739 25.45 174.205 25.45C170.672 25.45 167.439 26.3333 164.505 28.1C161.605 29.8333 159.289 32.1833 157.555 35.15C155.855 38.1167 155.005 41.4 155.005 45C155.005 48.6333 155.889 51.9333 157.655 54.9C159.422 57.8333 161.755 60.1667 164.655 61.9C167.589 63.6333 170.772 64.5 174.205 64.5Z" fill="#737373"/>
<path d="M251.561 39.05V70H244.561V40.45C244.561 37.7167 243.894 35.2333 242.561 33C241.228 30.7667 239.444 28.9833 237.211 27.65C234.978 26.3167 232.494 25.65 229.761 25.65C227.061 25.65 224.578 26.3167 222.311 27.65C220.078 28.9833 218.294 30.7667 216.961 33C215.628 35.2333 214.961 37.7167 214.961 40.45V70H207.961V20H214.961V26.9C216.728 24.3667 219.028 22.35 221.861 20.85C224.694 19.35 227.778 18.6 231.111 18.6C234.878 18.6 238.311 19.5167 241.411 21.35C244.511 23.1833 246.978 25.65 248.811 28.75C250.644 31.85 251.561 35.2833 251.561 39.05Z" fill="#737373"/>
<path d="M258.574 50.85V20H265.574V49.45C265.574 52.1833 266.241 54.6667 267.574 56.9C268.908 59.1333 270.691 60.9167 272.924 62.25C275.191 63.5833 277.674 64.25 280.374 64.25C283.108 64.25 285.574 63.5833 287.774 62.25C290.008 60.9167 291.791 59.1333 293.124 56.9C294.458 54.6667 295.124 52.1833 295.124 49.45V20H302.124L302.174 70H295.174L295.124 63C293.358 65.5333 291.058 67.55 288.224 69.05C285.424 70.55 282.358 71.3 279.024 71.3C275.258 71.3 271.824 70.3833 268.724 68.55C265.624 66.7167 263.158 64.25 261.324 61.15C259.491 58.05 258.574 54.6167 258.574 50.85Z" fill="#737373"/>
</svg>
