<svg width="24" height="26" viewBox="0 0 24 26" fill="none" xmlns="http://www.w3.org/2000/svg">
<path d="M8.94884 3.0523C9.8249 -0.0174345 14.1753 -0.0174337 15.0514 3.0523C15.5213 4.699 17.2131 5.67575 18.8742 5.25938C21.9707 4.48321 24.1459 8.25078 21.9254 10.5443C20.7343 11.7747 20.7343 13.7282 21.9254 14.9585C24.1459 17.2521 21.9707 21.0196 18.8742 20.2435C17.2131 19.8271 15.5213 20.8038 15.0514 22.4505C14.1753 25.5203 9.8249 25.5203 8.94884 22.4505C8.47889 20.8038 6.78711 19.8271 5.12606 20.2435C2.02956 21.0196 -0.145651 17.2521 2.07479 14.9585C3.2659 13.7282 3.2659 11.7747 2.07479 10.5443C-0.145651 8.25078 2.02956 4.48321 5.12606 5.25938C6.78711 5.67575 8.47889 4.699 8.94884 3.0523Z" stroke="black" stroke-width="1.5"/>
<path d="M15.1857 12.7296C15.1857 14.4188 13.8163 15.7882 12.1271 15.7882C10.4378 15.7882 9.06844 14.4188 9.06844 12.7296C9.06844 11.0404 10.4378 9.67099 12.1271 9.67099C13.8163 9.67099 15.1857 11.0404 15.1857 12.7296Z" stroke="black" stroke-width="1.5"/>
</svg>
